<svg xmlns="http://www.w3.org/2000/svg" viewBox="0 -10 1200 660" width="1200" height="660" font-family="ui-sans-serif, system-ui, -apple-system, Segoe UI, Roboto, sans-serif">
<rect x="0" y="-10" width="1200" height="660" fill="#ffffff"/>
<rect x="40" y="90" width="300" height="260" rx="10" fill="none" stroke="#2f9e44" stroke-width="1.5" stroke-dasharray="7 5"/>
<rect x="90" y="170" width="200" height="90" rx="10" fill="#b2f2bb" stroke="#2f9e44" stroke-width="2"/>
<rect x="400" y="90" width="320" height="260" rx="10" fill="none" stroke="#6741d9" stroke-width="1.5" stroke-dasharray="7 5"/>
<rect x="450" y="170" width="220" height="90" rx="10" fill="#d0bfff" stroke="#6741d9" stroke-width="2"/>
<rect x="780" y="90" width="380" height="520" rx="10" fill="none" stroke="#1971c2" stroke-width="1.5" stroke-dasharray="7 5"/>
<rect x="830" y="170" width="280" height="90" rx="10" fill="#a5d8ff" stroke="#1971c2" stroke-width="2"/>
<rect x="830" y="330" width="280" height="100" rx="10" fill="#a5d8ff" stroke="#1971c2" stroke-width="2"/>
<rect x="830" y="490" width="280" height="80" rx="10" fill="#e9ecef" stroke="#1e1e1e" stroke-width="2"/>
<line x1="290" y1="215" x2="450" y2="215" stroke="#495057" stroke-width="2"/>
<polyline points="440.0950818741206,219.78462087522354 450,215 440.0950818741206,210.21537912477646" fill="none" stroke="#495057" stroke-width="2"/>
<line x1="670" y1="215" x2="830" y2="215" stroke="#495057" stroke-width="2"/>
<polyline points="820.0950818741205,219.78462087522354 830,215 820.0950818741205,210.21537912477646" fill="none" stroke="#495057" stroke-width="2"/>
<line x1="970" y1="260" x2="970" y2="330" stroke="#495057" stroke-width="2"/>
<polyline points="965.2153791247765,320.0950818741206 970,330 974.7846208752235,320.0950818741206" fill="none" stroke="#495057" stroke-width="2"/>
<line x1="970" y1="430" x2="970" y2="490" stroke="#495057" stroke-width="2"/>
<polyline points="965.2153791247765,480.0950818741206 970,490 974.7846208752235,480.0950818741206" fill="none" stroke="#495057" stroke-width="2"/>
<text x="360" y="54" fill="#1e1e1e" font-size="24" font-weight="700" text-anchor="start">Maestro — Autonomous Cross-Chain am-AMM</text>
<text x="54" y="113" fill="#2f9e44" font-size="13" text-anchor="start">Ethereum Sepolia (origin)</text>
<text x="190" y="203.75" fill="#2f9e44" font-size="18" text-anchor="middle" dominant-baseline="central">Pyth</text>
<text x="190" y="226.25" fill="#2f9e44" font-size="18" text-anchor="middle" dominant-baseline="central">ETH/USD price feed</text>
<text x="414" y="113" fill="#6741d9" font-size="13" text-anchor="start">Reactive Lasna (ReactVM)</text>
<text x="560" y="203.75" fill="#6741d9" font-size="18" text-anchor="middle" dominant-baseline="central">MaestroManagerRSC</text>
<text x="560" y="226.25" fill="#6741d9" font-size="18" text-anchor="middle" dominant-baseline="central">autonomous brain</text>
<text x="794" y="113" fill="#1971c2" font-size="13" text-anchor="start">Unichain Sepolia (destination)</text>
<text x="970" y="203.75" fill="#1971c2" font-size="18" text-anchor="middle" dominant-baseline="central">ManagerCallback</text>
<text x="970" y="226.25" fill="#1971c2" font-size="18" text-anchor="middle" dominant-baseline="central">wins auction · repositions</text>
<text x="970" y="367.5" fill="#1971c2" font-size="20" text-anchor="middle" dominant-baseline="central">MaestroHook</text>
<text x="970" y="392.5" fill="#1971c2" font-size="20" text-anchor="middle" dominant-baseline="central">v4 hook · auction · vault</text>
<text x="970" y="530" fill="#1e1e1e" font-size="18" text-anchor="middle" dominant-baseline="central">Uniswap v4 Pool</text>
<text x="296.5" y="206" fill="#495057" font-size="13" text-anchor="start">PriceFeedUpdate event</text>
<text x="680" y="206" fill="#495057" font-size="13" text-anchor="start">cross-chain callback</text>
<text x="882.5" y="286" fill="#495057" font-size="13" text-anchor="start">repositionTo(lower,upper)</text>
<text x="917.5" y="451" fill="#495057" font-size="13" text-anchor="start">modifyLiquidity</text>
</svg>